<svg width="110" height="97" viewBox="0 0 110 97" fill="none" xmlns="http://www.w3.org/2000/svg">
<path d="M38.3517 60.5086H62.8171C63.1954 60.4829 63.575 60.4947 63.9514 60.5438C64.9329 60.7394 65.5232 61.4084 65.5232 62.5C65.5232 63.5915 64.9258 64.2684 63.9479 64.4562C63.5714 64.5038 63.1917 64.5143 62.8135 64.4875H13.3138C11.7776 64.4875 10.9313 63.7637 10.9348 62.4804C10.9384 61.1972 11.7776 60.4851 13.3174 60.4851L38.3517 60.5086Z" fill="white"/>
<path d="M58.2653 24.4539C58.2653 22.4743 58.2938 20.6826 58.2653 18.8947C58.2304 18.4147 58.3227 17.9339 58.531 17.5104C58.7392 17.0868 59.0545 16.7388 59.4388 16.5082C67.1222 11.3206 74.8008 6.12132 82.4747 0.910263C82.8458 0.619277 83.2902 0.462891 83.7459 0.462891C84.2017 0.462891 84.6461 0.619277 85.0172 0.910263C92.6863 6.12654 100.365 11.3259 108.053 16.5082C108.978 17.1303 109.262 17.9831 109.244 19.1294C109.042 30.7487 106.005 41.1864 98.7577 49.9067C98.4649 50.3633 98.3174 50.9134 98.3381 51.4716C98.3167 62.864 98.3108 74.255 98.3203 85.6448C98.3203 92.4129 94.5544 96.5559 88.4061 96.5598H9.90706C3.76226 96.5637 0 92.4051 0 85.6448V35.4551C0 28.5735 3.7267 24.4539 9.95684 24.4539H58.2653ZM94.6789 54.0185C91.5816 56.6005 88.5234 58.6505 85.1452 60.1059C84.7135 60.311 84.2482 60.4167 83.7779 60.4167C83.3077 60.4167 82.8424 60.311 82.4107 60.1059C73.2824 55.9824 66.469 49.1047 62.3049 39.2616C60.8612 35.8541 59.9509 32.1805 58.7489 28.4444H9.64391C5.86031 28.4444 3.64492 30.8895 3.64136 35.0638V85.903C3.64136 90.1438 5.8532 92.5537 9.7257 92.5537C36.0118 92.5537 62.2966 92.5537 88.5803 92.5537C92.5133 92.5537 94.6789 90.1477 94.6789 85.7934C94.6789 75.6921 94.6789 65.5934 94.6789 55.4973V54.0185ZM105.816 20.6552C105.511 20.1309 105.315 19.4111 104.881 19.1138C98.0962 14.4582 91.2888 9.84574 84.4589 5.27629C84.2414 5.16144 84.0032 5.10181 83.7619 5.10181C83.5207 5.10181 83.2825 5.16144 83.065 5.27629C76.2374 9.84966 69.4419 14.4817 62.6179 19.0668C62.366 19.1961 62.1612 19.4152 62.0366 19.6886C61.9121 19.962 61.875 20.2736 61.9316 20.573C62.2338 23.2607 62.3369 25.9914 62.849 28.6283C65.3027 41.3116 71.8979 50.3827 82.6347 55.8416C83.2287 56.1454 83.9042 56.1956 84.53 55.9824C89.4931 53.7234 93.8792 50.1644 97.3068 45.6151C102.794 38.4675 105.155 30.0445 105.816 20.6552Z" fill="white"/>
<path d="M34.5965 52.5005H13.4311C11.493 52.5005 10.9419 51.8745 10.9241 49.762C10.9241 46.1732 10.9241 42.5845 10.9241 38.9957C10.9241 37.1961 11.5606 36.4958 13.1964 36.4958C27.456 36.4958 41.718 36.4958 55.9823 36.4958C57.6181 36.4958 58.2546 37.1961 58.2582 38.9918C58.2582 42.664 58.2582 46.3362 58.2582 50.0084C58.2582 51.8041 57.6145 52.5122 55.9859 52.5122C48.8549 52.5044 41.7251 52.5005 34.5965 52.5005ZM14.6188 48.4044H54.5315V40.541H14.6188V48.4044Z" fill="white"/>
<path d="M38.3517 70.524H62.8171C63.1953 70.497 63.5749 70.5075 63.9514 70.5553C64.9329 70.7509 65.5232 71.4198 65.5232 72.5113C65.5232 73.6028 64.9258 74.2835 63.9479 74.4674C63.5714 74.5151 63.1917 74.5255 62.8135 74.4987H13.3138C11.7776 74.4987 10.9313 73.775 10.9348 72.4918C10.9384 71.2086 11.7776 70.4966 13.3174 70.4966L38.3517 70.524Z" fill="white"/>
<path d="M38.2379 84.5454H13.6587C13.2793 84.5721 12.8984 84.5617 12.5207 84.5141C11.5428 84.3146 10.949 83.6534 10.949 82.558C10.949 81.4626 11.5393 80.7897 12.5207 80.6019C12.8593 80.5561 13.201 80.5456 13.5413 80.5706C30.0033 80.5706 46.4653 80.5706 62.9273 80.5706C63.2676 80.5463 63.6091 80.5555 63.9479 80.598C64.9293 80.7975 65.5232 81.4626 65.5232 82.5541C65.5232 83.6456 64.9293 84.3263 63.9514 84.5102C63.5749 84.5578 63.1953 84.5683 62.8171 84.5415L38.2379 84.5454Z" fill="white"/>
<path d="M87.3927 76.5919C87.3849 78.1751 86.9508 79.7203 86.1452 81.0321C85.3395 82.344 84.1985 83.3637 82.8663 83.9624C81.5341 84.5611 80.0705 84.712 78.6604 84.3959C77.2503 84.0798 75.957 83.311 74.9439 82.1866C73.9308 81.0622 73.2434 79.6327 72.9685 78.0786C72.6936 76.5245 72.8436 74.9157 73.3995 73.4554C73.9554 71.995 74.8922 70.7487 76.0917 69.874C77.2911 68.9992 78.6994 68.5352 80.1384 68.5406C82.07 68.553 83.9183 69.4075 85.2781 70.9167C86.6379 72.426 87.3983 74.4668 87.3927 76.5919ZM83.7478 76.5058C83.7428 75.7138 83.524 74.9412 83.1193 74.2861C82.7146 73.631 82.1421 73.1229 81.4745 72.8263C80.8069 72.5297 80.0743 72.4579 79.3696 72.6201C78.6648 72.7822 78.0198 73.171 77.5162 73.7372C77.0126 74.3033 76.6732 75.0212 76.5411 75.7998C76.409 76.5785 76.49 77.3827 76.774 78.1106C77.0579 78.8385 77.532 79.4572 78.1361 79.8882C78.7401 80.3192 79.447 80.5431 80.1669 80.5315C81.1249 80.513 82.0378 80.0802 82.7079 79.3268C83.3781 78.5734 83.7516 77.56 83.7478 76.5058Z" fill="white"/>
<path d="M65.7436 23.2252C65.6802 22.7682 65.7492 22.3009 65.9407 21.8895C66.1321 21.478 66.4364 21.1433 66.8104 20.9326C72.0543 17.4038 77.284 13.8632 82.4995 10.3109C82.8746 10.0258 83.3206 9.87534 83.7765 9.88024C84.2324 9.88515 84.6757 10.0452 85.0456 10.3383C90.2113 13.841 95.3806 17.3321 100.553 20.8113C100.977 21.0472 101.321 21.4264 101.535 21.8932C101.749 22.36 101.821 22.8899 101.741 23.4051C100.496 35.8969 95.1233 45.3801 84.9603 51.3971C84.5653 51.6449 84.1163 51.769 83.6618 51.7559C83.2073 51.7428 82.7647 51.593 82.3822 51.3228C72.9729 45.7244 67.646 37.0118 66.0245 25.463C65.9036 24.7235 65.8325 23.9685 65.7436 23.2252ZM98.0073 24.1015C97.764 23.7896 97.4897 23.5087 97.1894 23.2643C93.004 20.4201 88.8008 17.6033 84.6331 14.7356C84.3898 14.5217 84.0876 14.4051 83.7761 14.4051C83.4646 14.4051 83.1624 14.5217 82.9191 14.7356C79.1355 17.349 75.3199 19.9076 71.515 22.4858C69.4418 23.8902 69.4098 23.902 69.8828 26.5349C71.4936 35.533 75.8106 42.4616 83.04 47.1093C83.2208 47.2231 83.4218 47.2925 83.6293 47.3128C83.8368 47.333 84.0458 47.3036 84.2419 47.2267C92.2607 42.1525 96.6382 34.4141 98.0073 24.1015Z" fill="white"/>
<path d="M81.8452 33.765C84.3913 30.9522 86.7383 28.3584 89.0888 25.7685C89.3441 25.4621 89.6186 25.1758 89.9103 24.9118C90.7211 24.2506 91.5603 24.2702 92.2822 25.037C93.004 25.8037 93.0538 26.7192 92.4848 27.6386C92.3009 27.903 92.0963 28.1491 91.8732 28.374C89.1422 31.3812 86.4159 34.3806 83.6944 37.3721C82.3573 38.8391 81.5607 38.8431 80.2343 37.3995C79.2138 36.2845 78.1861 35.1734 77.1868 34.035C76.312 33.0335 76.2658 31.8872 77.0268 31.0461C77.7878 30.2049 78.8226 30.2636 79.7472 31.1986C80.1028 31.5664 80.4584 31.9459 80.7926 32.3449C81.1269 32.744 81.4114 33.1939 81.8452 33.765Z" fill="white"/>
</svg>
