<svg width="41" height="40" viewBox="0 0 41 40" fill="none" xmlns="http://www.w3.org/2000/svg">
<path d="M1.5918 40H0.798592C0.0529806 39.5439 -0.12549 39.1235 0.116437 38.2431C0.867336 35.5382 1.62352 32.8374 2.385 30.1405C2.4299 30.0109 2.44711 29.8734 2.43549 29.7367C2.42388 29.6001 2.38371 29.4674 2.31758 29.3473C0.490573 25.9154 -0.283376 22.0209 0.0926408 18.1512C0.434548 13.7767 2.27034 9.65283 5.29209 6.47129C10.1505 1.3115 16.1629 -0.762725 23.1669 0.248609C26.9582 0.83256 30.4995 2.50103 33.3637 5.05275C36.2279 7.60447 38.2925 10.9304 39.3086 14.6294C39.6299 15.8192 39.7766 17.0764 40.0066 18.298V21.7325C39.9392 22.2084 39.8758 22.6844 39.8044 23.1603C39.2059 26.9477 37.5309 30.4832 34.979 33.3452C32.4271 36.2072 29.106 38.2749 25.4117 39.302C24.2219 39.6272 22.9686 39.7739 21.7431 40H18.3879C18.3121 39.9799 18.2353 39.9641 18.1579 39.9524C15.7828 39.761 13.4675 39.1104 11.3403 38.0368C11.026 37.8574 10.6774 37.7464 10.3172 37.7108C9.95707 37.6753 9.59348 37.7161 9.25017 37.8306C6.71192 38.5921 4.15781 39.2822 1.5918 40ZM20.7397 2.45768C20.2479 2.45768 19.7522 2.45768 19.2604 2.45768C16.8555 2.48827 14.491 3.08041 12.3556 4.18686C5.69662 7.71662 2.32947 13.2492 2.48018 20.8441C2.55863 23.6156 3.33625 26.3223 4.74081 28.7127C4.87157 28.9238 4.9552 29.1607 4.986 29.4071C5.0168 29.6535 4.99405 29.9037 4.91928 30.1405C4.30852 32.2782 3.72948 34.4198 3.12268 36.5654C3.10449 36.6968 3.09785 36.8295 3.10285 36.962C3.23578 36.9648 3.36865 36.9541 3.49945 36.9303C5.65696 36.3354 7.81051 35.7405 9.96009 35.1297C10.1838 35.0619 10.4193 35.0424 10.6511 35.0725C10.8829 35.1026 11.1056 35.1816 11.3046 35.3042C15.0578 37.4878 19.4981 38.1707 23.7341 37.2159C27.7632 36.3483 31.359 34.0915 33.8922 30.8405C36.4254 27.5895 37.7349 23.5512 37.5913 19.4322C37.5478 17.3329 37.1036 15.2612 36.2826 13.3285C33.2882 6.5982 28.0332 3.06448 20.7397 2.45768Z" fill="#1A1818"/>
<path d="M9.24624 16.2356C9.20261 13.503 10.436 11.4328 12.5658 9.84638C13.2797 9.32953 14.1529 9.0808 15.032 9.1439C15.9111 9.207 16.7398 9.5779 17.3726 10.1914C17.8089 10.6012 18.2319 11.0243 18.6417 11.4606C19.3105 12.1688 19.6831 13.106 19.6831 14.0801C19.6831 15.0542 19.3105 15.9914 18.6417 16.6997C18.4434 16.9099 18.2451 17.0963 18.0429 17.3144C17.977 17.3787 17.9247 17.4555 17.889 17.5403C17.8533 17.6251 17.8349 17.7161 17.8349 17.8082C17.8349 17.9002 17.8533 17.9913 17.889 18.0761C17.9247 18.1609 17.977 18.2377 18.0429 18.3019C19.2697 19.5393 20.5031 20.7714 21.7432 21.9983C22.0604 22.3116 22.4293 22.2402 22.8179 21.915C23.2831 21.4635 23.7965 21.0645 24.3488 20.7252C25.0327 20.3867 25.8045 20.2678 26.5585 20.385C27.3125 20.5021 28.0118 20.8495 28.5607 21.3796C28.9573 21.7524 29.3539 22.145 29.7228 22.5337C30.4439 23.2285 30.8639 24.1782 30.8929 25.1792C30.9218 26.1801 30.5572 27.1525 29.8775 27.8878C28.4537 29.5496 26.7284 30.6124 24.4995 30.7671C22.8455 30.8864 21.1866 30.6147 19.657 29.9739C14.8978 27.9909 11.5783 24.5762 9.82924 19.694C9.44574 18.5812 9.24875 17.4127 9.24624 16.2356ZM11.6655 16.2555C11.7091 16.6521 11.725 17.0844 11.7964 17.4929C11.8676 17.9548 11.9777 18.4098 12.1256 18.8532C13.5732 22.9739 16.3652 25.8493 20.3273 27.6102C21.344 28.0511 22.4327 28.3025 23.5398 28.3518C25.4554 28.4549 26.9347 27.6578 28.1165 26.2102C28.345 25.9382 28.4639 25.5908 28.45 25.2358C28.436 24.8809 28.2903 24.5439 28.0412 24.2906C27.7001 23.9178 27.3392 23.5569 26.9664 23.2119C26.7132 22.9514 26.3683 22.8003 26.0052 22.7907C25.6421 22.781 25.2897 22.9137 25.0231 23.1603C24.793 23.3507 24.5908 23.5569 24.3766 23.779C23.8206 24.3324 23.0721 24.6493 22.2878 24.6634C21.5034 24.6774 20.7441 24.3875 20.1686 23.8544C18.8083 22.5694 17.4837 21.2407 16.2026 19.8883C15.6683 19.3126 15.3767 18.553 15.3885 17.7677C15.4003 16.9823 15.7147 16.2318 16.2661 15.6725C16.4803 15.4464 16.7142 15.2362 16.9125 14.9943C17.1439 14.7413 17.2721 14.411 17.2721 14.0682C17.2721 13.7254 17.1439 13.3951 16.9125 13.1421C16.5311 12.7151 16.126 12.3099 15.6989 11.9285C15.4583 11.7131 15.1495 11.5894 14.8266 11.5792C14.5038 11.5691 14.1877 11.6731 13.9341 11.873C12.5261 12.9994 11.5981 14.3676 11.6655 16.2594V16.2555Z" fill="#1A1818"/>
</svg>
