<svg xmlns="http://www.w3.org/2000/svg" viewBox="0 0 83.42 100"><defs><style>.cls-1{fill:#fff;}</style></defs><g id="Capa_2" data-name="Capa 2"><g id="Capa_1-2" data-name="Capa 1"><path class="cls-1" d="M43.77,0c.89.17,1.78.3,2.66.53C56.27,3.1,62.63,9.3,64.69,19.24c2,9.52-1,17.71-8.7,23.75-7.92,6.24-16.79,7-25.73,2.6a22.62,22.62,0,0,1-13-18.37A23.72,23.72,0,0,1,31.32,2,42.82,42.82,0,0,1,37.75.17c.24-.07.5-.11.75-.17Z"/><path class="cls-1" d="M41.7,100c-8.36,0-16.72,0-25.07,0A16.93,16.93,0,0,1,6.5,96.66,14.84,14.84,0,0,1,.23,85.75,52,52,0,0,1,3.54,61.64C5.4,57,8.19,52.93,12.8,50.46a18.24,18.24,0,0,1,9.09-2.2A7.41,7.41,0,0,1,25,49.32c1.46.78,2.81,1.76,4.21,2.64a22.76,22.76,0,0,0,14,3.83,23.32,23.32,0,0,0,10.45-3.44A30.06,30.06,0,0,0,57,50.17C59.7,48,62.64,48,65.8,48.67c5.87,1.32,9.94,4.85,12.74,10a41.28,41.28,0,0,1,4.49,16,87.27,87.27,0,0,1,.38,9.15A16,16,0,0,1,68.72,99.8c-1.26.12-2.53.19-3.79.19-7.74,0-15.48,0-23.23,0Z"/></g></g></svg>