<svg width="35" height="35" viewBox="0 0 35 35" fill="none" xmlns="http://www.w3.org/2000/svg">
<rect width="35" height="35" rx="5" fill="white"/>
<g clip-path="url(#clip0_174_3885)">
<path d="M21.7702 23.6155C19.6807 25.2387 17.0512 26.0044 14.4169 25.7568C11.7827 25.5092 9.34184 24.2669 7.59141 22.2829C5.84097 20.2988 4.91255 17.7222 4.99519 15.0776C5.07783 12.4331 6.16531 9.91943 8.03621 8.04854C9.9071 6.17764 12.4207 5.09016 15.0653 5.00752C17.7098 4.92488 20.2865 5.8533 22.2705 7.60374C24.2546 9.35417 25.4969 11.795 25.7445 14.4292C25.9921 17.0635 25.2263 19.693 23.6032 21.7825L30.5582 28.7115L28.7122 30.5575L21.7832 23.6155H21.7702ZM15.4002 23.1995C16.4245 23.1995 17.4388 22.9978 18.3851 22.6058C19.3315 22.2138 20.1913 21.6393 20.9156 20.915C21.6399 20.1907 22.2145 19.3308 22.6065 18.3845C22.9984 17.4381 23.2002 16.4238 23.2002 15.3995C23.2002 14.3752 22.9984 13.3609 22.6065 12.4146C22.2145 11.4683 21.6399 10.6084 20.9156 9.88409C20.1913 9.15979 19.3315 8.58525 18.3851 8.19326C17.4388 7.80128 16.4245 7.59952 15.4002 7.59952C13.3315 7.59952 11.3475 8.42131 9.88476 9.88409C8.42198 11.3469 7.60019 13.3308 7.60019 15.3995C7.60019 17.4682 8.42198 19.4522 9.88476 20.915C11.3475 22.3777 13.3315 23.1995 15.4002 23.1995Z" fill="#1A1818"/>
</g>
<defs>
<clipPath id="clip0_174_3885">
<rect width="26" height="26" fill="white" transform="translate(5 5)"/>
</clipPath>
</defs>
</svg>
