<svg width="89" height="99" viewBox="0 0 89 99" fill="none" xmlns="http://www.w3.org/2000/svg">
<path d="M46.4626 71.2227C44.7634 72.2848 43.1889 73.6016 41.4184 74.3031C37.2114 75.9726 33.1718 73.3821 32.1102 68.5969C32.014 68.158 31.9321 67.719 31.8217 67.1821C28.7938 67.9659 26.0579 67.574 24.1236 64.619C22.2855 61.813 22.4957 58.7796 23.6178 55.6051H22.3924C17.2413 55.6051 12.0915 55.6051 6.94285 55.6051C2.76788 55.6051 0 52.5561 0 47.9511C0 34.7987 0 21.6436 0 8.48591C0 3.95152 2.77856 0.863281 6.87873 0.863281C24.9513 0.863281 43.025 0.863281 61.0999 0.863281C65.225 0.863281 68.0036 3.91233 68.0143 8.43104C68.025 12.9498 68.0428 17.4058 67.9965 21.8892C67.953 22.2361 68.028 22.5884 68.207 22.878C68.386 23.1675 68.6562 23.3738 68.9654 23.4568C72.7022 25.0245 76.3856 26.7645 80.158 28.2185C84.1834 29.7862 86.9976 35.1553 86.7304 39.192C86.2994 45.6742 86.0179 52.1681 85.7579 58.662C85.5762 63.3218 85.0205 68.0247 86.0856 72.6257C86.6948 75.2554 87.6886 77.7754 88.4474 80.3659C88.6495 80.9943 88.6975 81.6702 88.5863 82.3255C87.8739 85.5744 86.0928 88.1649 83.9554 90.3988C77.009 97.5433 68.7695 100.032 59.4827 98.1978C57.7015 97.8451 55.9952 96.8183 54.3352 95.9208C53.1703 95.2898 53.0421 94.5139 53.4696 93.15C54.2248 90.7437 53.9861 88.7058 52.0945 86.903C49.3836 84.3203 47.3175 81.1889 46.6264 77.2072C46.4587 75.971 46.3801 74.7221 46.3913 73.4723C46.3557 72.6689 46.4341 71.8458 46.4626 71.2227ZM41.6785 51.9643C40.2536 49.8401 38.9783 47.9551 37.7065 46.0857C36.588 44.4436 35.3768 42.8759 34.3545 41.1633C31.5937 36.5427 34.7107 31.973 37.9488 30.9736C39.6941 30.4512 41.5298 30.4121 43.2922 30.86C47.7699 31.8986 51.236 34.6262 53.8792 38.659C56.0807 42.0176 58.2038 45.4351 60.4124 48.7859C61.1156 49.7574 61.8635 50.6887 62.6531 51.5763C64.2739 50.3731 64.7904 48.9466 64.7904 46.9479C64.7014 34.1795 64.7441 21.4072 64.7441 8.63876C64.7441 5.89539 63.4902 4.52371 60.9752 4.52371H7.12452C4.54901 4.51587 3.32003 5.8562 3.32003 8.70146V47.8101C3.32003 50.6396 4.55257 51.98 7.14233 51.98C16.6797 51.98 26.2147 51.98 35.7473 51.98L41.6785 51.9643ZM65.9018 53.4653C67.7992 54.4132 69.8772 54.8409 71.9577 54.7116C72.1823 54.6879 72.409 54.7149 72.6238 54.7909C72.8387 54.8669 73.0372 54.9902 73.2072 55.1535C73.3772 55.3167 73.5152 55.5163 73.6128 55.7402C73.7103 55.9641 73.7653 56.2075 73.7745 56.4556C73.786 56.7043 73.7503 56.953 73.6696 57.1856C73.5889 57.4183 73.465 57.63 73.3058 57.807C73.1465 57.984 72.9555 58.1226 72.7448 58.2138C72.5342 58.305 72.3086 58.3469 72.0824 58.3367C70.6708 58.342 69.2613 58.2187 67.8682 57.9683C62.8027 56.9337 59.1656 53.6573 56.3835 49.0093C54.6593 46.1249 52.8212 43.3188 50.9795 40.5166C49.0132 37.5224 46.4376 35.3748 43.1426 34.5831C41.7382 34.2265 40.2808 34.2038 38.8678 34.5165C36.7768 35.0417 36.0893 37.3539 37.2114 39.3331C37.6317 40.0738 38.1269 40.7635 38.6042 41.4611C40.421 44.1379 42.3268 46.748 44.0509 49.4953C48.4761 56.4001 50.4827 64.8324 49.7007 73.2371C49.5119 75.5141 49.7969 77.7127 50.9582 79.5625C52.2211 81.5015 53.6194 83.3294 55.1403 85.0297C56.195 86.1391 56.863 87.6201 57.0283 89.2152C57.1422 90.5909 57.0496 91.99 57.0496 93.5262C57.9723 93.8711 58.9519 94.408 59.9885 94.6001C69.1008 96.2853 76.9377 93.6908 83.1432 85.9781C83.8841 85.0571 84.3686 83.8814 84.9564 82.8115C85.3126 82.1374 85.2521 81.5025 84.9564 80.7735C83.2999 76.8544 82.2419 72.7041 82.2526 68.3539C82.2526 63.4943 82.4557 58.6307 82.6445 53.7749C82.844 48.6801 83.2572 43.6088 83.3356 38.5179C83.3819 35.4845 81.9427 33.1174 79.353 31.8986C76.5031 30.5582 73.575 29.4099 70.6824 28.1754C69.8239 27.8109 68.9725 27.4347 68.0463 27.035V42.7975C68.1318 42.7975 68.2138 42.7975 68.2458 42.7466C68.9369 41.8922 69.742 41.6257 70.629 42.3155C71.516 43.0053 71.5053 43.9302 71.06 44.8551C70.2122 46.6304 69.3679 48.4175 68.3812 50.0988C67.683 51.2785 66.7497 52.3092 65.9018 53.4653ZM43.4347 55.468C43.278 55.6387 43.1306 55.8193 42.9929 56.0088C40.9268 59.3949 38.6399 62.5615 35.5977 64.9835C35.3939 65.1738 35.2556 65.4353 35.2058 65.7242C35.0916 66.3601 35.1031 67.0155 35.2394 67.646C35.3758 68.2765 35.6338 68.8674 35.996 69.3785C36.3582 69.8897 36.8162 70.3091 37.3387 70.6084C37.8613 70.9076 38.4362 71.0797 39.0246 71.113C39.6132 71.162 40.2047 71.0773 40.7624 70.8643C41.32 70.6512 41.8319 70.3144 42.2662 69.8745C43.5665 68.5342 44.7598 67.041 45.9461 65.591C46.1188 65.3623 46.2032 65.0682 46.1812 64.7719C45.7437 61.5212 44.809 58.3754 43.4168 55.468H43.4347ZM39.2241 55.6169C35.3056 55.6169 31.6507 55.6169 27.9958 55.6169C27.7144 55.6169 27.2549 55.8364 27.1836 56.0715C26.7633 57.4118 26.1755 58.7757 26.1149 60.1552C26.0294 62.7183 28.0457 64.2938 30.3327 63.7059C30.8032 63.5937 31.2625 63.4309 31.7041 63.2199C34.8781 61.6092 37.0475 58.8188 39.2063 55.6169H39.2241Z" fill="white"/>
<path d="M19.9201 19.1148C21.9933 19.1148 24.0666 19.1148 26.1398 19.1148C27.6217 19.1148 28.1952 19.7614 28.1988 21.4074C28.1988 24.7542 28.1988 28.0996 28.1988 31.4438C28.1988 33.0702 27.6075 33.7051 26.1149 33.709C21.9684 33.709 17.8207 33.709 13.6719 33.709C12.1935 33.709 11.62 33.0584 11.6165 31.4125C11.6165 28.0709 11.6165 24.7254 11.6165 21.376C11.6165 19.7457 12.2007 19.1187 13.7004 19.1148C15.7736 19.1109 17.8469 19.1148 19.9201 19.1148ZM14.9614 29.9977H24.8146V22.8535H14.9614V29.9977Z" fill="white"/>
<path d="M59.536 21.0311C59.5297 24.4246 58.7338 27.7598 57.2241 30.7191C56.6043 31.9458 55.6639 32.3416 54.7662 31.7812C53.8685 31.2207 53.6975 30.2135 54.2853 29.0143C56.8643 23.653 56.9 18.2877 54.3387 12.9068C53.8044 11.7898 54.0252 10.7669 54.8695 10.2339C55.7137 9.70095 56.6506 10.0419 57.2491 11.2255C58.7745 14.2191 59.5629 17.5992 59.536 21.0311Z" fill="white"/>
<path d="M52.8783 21.0075C52.8581 23.3712 52.2495 25.6836 51.1185 27.6935C50.4631 28.8692 49.5654 29.1945 48.6997 28.634C47.8341 28.0736 47.656 27.0311 48.2758 25.8554C49.9786 22.6182 50.0071 19.3772 48.3221 16.1204C47.7237 14.9447 47.9125 13.9179 48.803 13.377C49.6936 12.8362 50.5201 13.1693 51.1435 14.2863C52.2701 16.3097 52.8702 18.6346 52.8783 21.0075Z" fill="white"/>
<path d="M46.2275 20.9251C46.2105 22.347 45.7009 23.7082 44.8026 24.7306C44.0901 25.5615 43.1105 25.6359 42.4088 24.9462C41.707 24.2564 41.6963 23.308 42.2698 22.3987C43.1141 21.0937 43.1141 20.7253 42.2698 19.4868C41.6393 18.5697 41.6927 17.5037 42.3981 16.8492C43.1034 16.1948 43.9619 16.2653 44.7064 17.0648C45.6547 18.0818 46.2011 19.4685 46.2275 20.9251Z" fill="white"/>
</svg>
