<svg width="91" height="100" viewBox="0 0 91 100" fill="none" xmlns="http://www.w3.org/2000/svg">
<path d="M90.0361 60.0625C89.823 60.8919 89.6558 61.7394 89.3805 62.5471C88.6936 64.7038 87.4295 66.5814 85.7546 67.933C84.0796 69.2847 82.0722 70.0471 79.996 70.1201C79.6569 70.0978 79.3198 70.1921 79.0315 70.3898C78.7431 70.5875 78.5178 70.8788 78.3866 71.2236C73.8544 80.4963 69.3004 89.7522 64.7245 98.9912C64.5835 99.2761 64.4393 99.5538 64.2885 99.8567H60.8992C65.7701 89.9649 70.5951 80.1597 75.4824 70.2211C75.1054 70.1995 74.8268 70.1634 74.5548 70.1634C72.2963 70.1634 70.0412 70.1886 67.786 70.1454C67.5152 70.108 67.2407 70.1688 67.0042 70.3185C66.7676 70.4681 66.5818 70.6985 66.4749 70.9748C64.3803 75.1832 62.253 79.37 60.1355 83.564C60.0005 83.8497 59.8471 84.1244 59.6766 84.3862C59.2996 84.9199 58.7424 85.1976 58.2016 84.9307C57.756 84.6721 57.3865 84.2794 57.1363 83.7984C56.9592 83.4774 57.0084 82.987 57.0051 82.5723C57.0051 78.5442 57.0215 74.5124 57.0051 70.4843C56.9789 66.3084 54.809 63.0881 51.2525 62.2082C49.8758 61.8692 48.3942 62.0783 46.9749 61.9124C45.8506 61.7826 45.1918 62.2514 44.5264 63.2395C40.2651 69.5576 35.9449 75.8179 31.6411 82.0962C31.5055 82.3143 31.3588 82.5238 31.2019 82.7237C30.448 83.6 29.4777 83.5928 28.7763 82.6624C28.2944 82.0169 27.8781 81.3137 27.4324 80.6321C23.5623 74.6867 19.6988 68.7365 15.8419 62.7815C15.6889 62.497 15.4649 62.2669 15.1964 62.1186C14.9279 61.9702 14.6263 61.9099 14.3275 61.9449C13.2163 62.0026 12.1018 61.9449 10.9874 61.9629C6.1722 61.9846 2.99924 65.4645 2.99596 70.7512C2.99596 80.0383 2.99596 89.323 2.99596 98.6053V99.8387H0.0458899C0.0458899 99.5934 0 99.3158 0 99.0417C0 89.4973 0 79.9542 0 70.4122C0 64.4476 3.60564 59.7956 8.93543 58.7931C9.63138 58.6866 10.3341 58.6432 11.0365 58.6633C13.6588 58.6633 16.3106 58.6633 18.9493 58.6633C21.3585 58.6633 22.4992 57.3939 22.5025 54.747C22.5025 53.7481 22.7549 52.6301 22.4238 51.7863C22.1222 51.0146 21.1913 50.5386 20.5325 49.9399C17.6383 47.3464 15.7302 43.6561 15.183 39.5938C15.0595 38.7011 14.9981 37.7993 14.9995 36.8964C14.9732 34.7723 14.9995 32.6411 14.9995 30.5134C14.9631 30.0786 15.0538 29.6423 15.2584 29.2681C15.463 28.8939 15.7707 28.6012 16.1369 28.4327C24.4298 24.1557 32.7184 19.8716 41.0027 15.5802C42.1335 14.996 42.8546 15.3386 43.425 16.5972C44.4859 18.9429 45.0348 21.5285 45.0279 24.1485C45.0279 28.4363 45.077 32.724 45.0279 37.0118C44.9426 42.9331 42.694 47.6248 38.2067 50.9533C37.7215 51.3139 37.4626 51.6745 37.5117 52.3525C37.5675 53.153 37.5117 53.9644 37.5117 54.7686C37.5117 57.3542 38.6852 58.6452 41.0191 58.6561C43.861 58.6561 46.7061 58.6128 49.5415 58.6741C54.8745 58.7895 58.9555 62.6409 59.8765 68.4108C59.9836 69.2468 60.0275 70.0911 60.0076 70.9351C60.0076 72.8284 60.0076 74.7216 60.0076 76.8709C60.2535 76.485 60.3879 76.3047 60.4928 76.1064C61.7318 73.6578 62.9741 71.2128 64.1935 68.7534C64.387 68.3623 64.5147 67.9359 64.5704 67.4948C65.3047 61.184 69.5954 57.0044 75.407 56.99C79.5666 56.99 83.7295 56.99 87.8891 56.99C88.8167 56.99 89.528 57.2569 90.0328 58.1512L90.0361 60.0625ZM41.3468 19.0746C40.8158 19.3343 40.5503 19.4569 40.2914 19.5903C37.1381 21.2203 33.987 22.8503 30.838 24.4803C26.7866 26.5755 22.7319 28.6671 18.6936 30.7947C18.4084 30.9462 18.038 31.3429 18.038 31.6241C18.038 34.1485 17.8872 36.7485 18.2085 39.2512C19.0804 46.0453 24.6331 50.791 30.8905 50.3619C33.8595 50.1262 36.6424 48.6827 38.6967 46.3126C40.751 43.9426 41.9295 40.8158 42.0024 37.5419C42.0942 32.9007 42.0712 28.256 42.0024 23.6148C41.95 22.1579 41.5861 20.6974 41.3468 19.0746ZM25.4951 52.9439C25.5443 55.2482 25.6 57.4155 24.3151 59.2727C23.0302 61.1299 21.2175 61.9125 18.9952 61.9846C20.421 64.1843 21.7486 66.2543 23.1187 68.2954C23.2465 68.4901 23.63 68.5514 23.8955 68.5514C28.1109 68.5514 32.3262 68.5514 36.5415 68.5731C36.7411 68.5919 36.9416 68.551 37.1217 68.4544C37.3018 68.3579 37.4547 68.2095 37.5642 68.0249C38.4885 66.6149 39.4588 65.241 40.4094 63.8526C40.806 63.272 41.1961 62.6878 41.691 61.9593C41.2092 61.9593 40.9207 61.9593 40.6323 61.9593C37.1938 61.7826 34.9616 59.5324 34.5682 55.7783C34.522 54.833 34.522 53.8856 34.5682 52.9403C31.6055 53.8891 28.4585 53.8903 25.4951 52.9439ZM86.8205 60.3077C82.7625 60.3077 78.7537 60.2464 74.7482 60.3474C73.6705 60.415 72.6167 60.7229 71.6506 61.2525C69.5396 62.356 68.2613 64.2601 67.7172 66.8457C71.8833 66.8457 75.9478 66.9286 80.0091 66.8205C83.346 66.7375 86.0961 64.0329 86.8205 60.3077ZM25.4394 71.9052L30.0448 78.9661L34.8862 71.9052H25.4394Z" fill="white"/>
<path d="M31.8279 0.863281C33.0866 1.12653 34.3781 1.28521 35.604 1.67467C44.6422 4.56444 50.1446 11.0772 52.1113 21.213C52.3931 22.8254 52.5281 24.4647 52.5145 26.1066C52.5603 31.8441 52.544 37.5851 52.5145 43.3226C52.5145 48.7319 49.8102 52.998 45.4048 54.7001C43.8577 55.2987 42.2613 55.3925 40.5667 55.3348V52.1073C41.314 52.0532 42.0384 52.0063 42.7628 51.945C46.198 51.6565 49.1776 48.447 49.3972 44.6605C49.5283 42.3814 49.5119 40.0878 49.5087 37.8087C49.5087 33.2974 49.5873 28.7932 49.3972 24.2747C49.1252 17.8989 46.5717 12.6736 42.0089 8.76805C34.6895 2.51852 25.069 2.59065 17.7954 8.9159C13.8325 12.3815 11.4856 16.9721 10.7415 22.5004C10.5956 23.6159 10.5233 24.7416 10.5252 25.8686C10.5055 31.7034 10.5252 37.5382 10.5252 43.3731C10.5252 46.9143 11.9084 49.5541 14.7864 51.1949C15.9336 51.8476 17.1792 52.0027 18.4477 52.0387C18.7755 52.0387 19.1033 52.0387 19.4606 52.0387V55.3168C17.8433 55.4745 16.2137 55.2734 14.6684 54.7253C10.4629 53.1386 7.61116 49.0456 7.55871 44.1664C7.48332 37.3363 7.40793 30.4953 7.63083 23.6688C7.80455 18.3713 9.73849 13.6725 12.8754 9.62272C15.9861 5.54345 20.2249 2.6963 24.9444 1.516C26.0524 1.2239 27.1996 1.07605 28.3108 0.863281H31.8279Z" fill="white"/>
<path d="M90.036 26.5936C89.7082 27.964 89.3804 29.3163 88.5741 30.4775C86.9515 32.854 84.7455 33.8746 82.1069 33.8926C80.2024 33.8926 78.298 33.9142 76.3936 33.8926C76.149 33.8765 75.9042 33.921 75.6773 34.0227C75.4504 34.1244 75.2471 34.2808 75.0824 34.4804C73.1157 36.691 71.1162 38.8692 69.1266 41.0581C68.9627 41.242 68.7988 41.4188 68.625 41.5991C68.4096 41.8443 68.1306 42.0105 67.8262 42.075C67.5218 42.1395 67.2067 42.0993 66.9238 41.9597C66.6483 41.8366 66.4145 41.6222 66.2547 41.3463C66.095 41.0703 66.0172 40.7466 66.0323 40.4198C66.0126 38.8403 66.0323 37.2644 66.0323 35.6849V33.8818C65.203 33.8818 64.4261 33.8818 63.6493 33.8818C62.1415 33.8565 60.6763 33.6365 59.3454 32.7638C58.2905 32.1209 57.3967 31.2005 56.7441 30.0847C56.0914 28.969 55.7002 27.6927 55.6054 26.37C55.543 25.41 55.5244 24.4471 55.5497 23.4851C55.5497 18.9088 55.6218 14.3289 55.5235 9.7562C55.4186 5.24844 58.113 1.61698 61.9448 0.975074C61.9939 0.975074 62.0366 0.90295 62.0792 0.863281H83.359C83.4918 0.924415 83.6288 0.973855 83.7687 1.01114C85.5422 1.33358 87.1499 2.35052 88.2955 3.87447C89.2788 5.13664 89.7148 6.64404 90.0425 8.20192L90.036 26.5936ZM69.0315 36.1789L69.2642 36.2691C70.6835 34.6932 72.1225 33.1389 73.5254 31.5341C73.7891 31.213 74.1144 30.9606 74.4779 30.7953C74.8414 30.63 75.2338 30.5559 75.6265 30.5785C77.7637 30.6145 79.8878 30.6037 82.0413 30.5785C85.2241 30.5568 87.0433 28.5374 87.0466 25.0357C87.0466 19.9125 87.0466 14.7869 87.0466 9.65883C87.0466 6.16802 85.2044 4.15215 82.0151 4.14854H68.6447C66.7993 4.14854 64.9539 4.11609 63.1084 4.14854C60.5976 4.20624 58.5981 6.17523 58.5719 8.78613C58.5129 14.4912 58.5129 20.195 58.5719 25.8976C58.5951 27.0563 59.0075 28.1644 59.7297 29.0082C60.4518 29.852 61.4325 30.3716 62.4823 30.4667C63.9082 30.6037 65.3472 30.5568 66.7829 30.5713C68.6414 30.5713 69.0315 31.0112 69.0348 33.0956L69.0315 36.1789Z" fill="white"/>
<path d="M13.4522 99.8784H10.4399C10.4399 98.6559 10.4628 97.4731 10.4399 96.2903C10.4442 95.8796 10.3551 95.4743 10.1809 95.1111C6.55564 88.7606 6.64742 82.4426 10.276 76.1426C10.4792 75.782 10.689 75.4502 10.9512 75.0103L13.4326 76.7448C12.9474 77.6536 12.4492 78.483 12.0428 79.3593C9.79743 84.123 10.0105 88.7642 12.6983 93.2322C13.2182 94.0115 13.4859 94.9599 13.4588 95.926C13.4129 97.2062 13.4522 98.4936 13.4522 99.8784Z" fill="white"/>
<path d="M46.5652 76.7665L49.1711 74.9634C49.925 76.5104 50.7871 77.9349 51.3443 79.4891C53.311 84.9669 52.7636 90.1995 49.8365 95.1399C49.6714 95.4713 49.5868 95.8439 49.5906 96.2218C49.5579 97.3505 49.5743 98.4792 49.571 99.6044C49.5607 99.6925 49.5431 99.7794 49.5185 99.864H46.6144C46.6144 98.1403 46.5783 96.4129 46.6373 94.6892C46.7194 94.2481 46.9059 93.8388 47.1781 93.5027C49.2596 90.3149 49.9873 86.77 49.1875 82.9727C48.8597 81.3752 48.073 79.8858 47.4535 78.3676C47.1921 77.8115 46.8952 77.2765 46.5652 76.7665Z" fill="white"/>
<path d="M81.0056 15.7969H64.5049C63.7065 15.7969 63.0593 16.5088 63.0593 17.3871C63.0593 18.2653 63.7065 18.9773 64.5049 18.9773H81.0056C81.8039 18.9773 82.4511 18.2653 82.4511 17.3871C82.4511 16.5088 81.8039 15.7969 81.0056 15.7969Z" fill="white"/>
<path d="M72.0079 22.3599H64.5278C63.7295 22.3599 63.0823 23.0719 63.0823 23.9503V23.9755C63.0823 24.8539 63.7295 25.5659 64.5278 25.5659H72.0079C72.8062 25.5659 73.4534 24.8539 73.4534 23.9755V23.9503C73.4534 23.0719 72.8062 22.3599 72.0079 22.3599Z" fill="white"/>
<path d="M81.0056 9.18652H64.5115C63.7131 9.18652 63.0659 9.89772 63.0659 10.775C63.0659 11.6523 63.7131 12.3635 64.5115 12.3635H81.0056C81.804 12.3635 82.4511 11.6523 82.4511 10.775C82.4511 9.89772 81.804 9.18652 81.0056 9.18652Z" fill="white"/>
</svg>
