<svg width="114" height="109" viewBox="0 0 114 109" fill="none" xmlns="http://www.w3.org/2000/svg">
<path d="M113.148 15.3445C113.168 15.8046 113.055 16.26 112.823 16.644C112.592 17.0281 112.255 17.3206 111.862 17.4788C111.386 17.671 110.873 17.7405 110.375 17.9163C105.819 19.5764 102.858 22.9387 101.493 28.0033C101.4 28.3427 101.34 28.6984 101.233 29.0337C100.913 30.0436 100.233 30.612 99.3966 30.5956C98.9999 30.5799 98.6178 30.4273 98.3043 30.1595C97.9908 29.8917 97.7619 29.5221 97.6498 29.1032C97.5384 28.772 97.4752 28.4163 97.386 28.0769C95.97 22.7615 92.8704 19.3106 88.0166 17.7896C87.7081 17.6914 87.3848 17.626 87.0801 17.5033C86.7034 17.3683 86.3728 17.1108 86.132 16.7648C85.8911 16.4187 85.7513 16.0005 85.731 15.5653C85.7365 15.1304 85.8637 14.708 86.0951 14.3554C86.3265 14.0028 86.6509 13.7372 87.0243 13.5945C87.3253 13.4677 87.6487 13.4064 87.9609 13.3083C92.8407 11.7423 96.0146 8.3036 97.3971 2.89824C97.4863 2.55887 97.5495 2.20315 97.6647 1.87196C97.7883 1.45596 98.0301 1.09459 98.3543 0.841008C98.6785 0.587425 99.0682 0.455014 99.466 0.463253C99.8637 0.471492 100.249 0.619946 100.564 0.886779C100.879 1.15361 101.108 1.52473 101.218 1.94556C101.314 2.22768 101.378 2.53025 101.452 2.82464C102.849 8.35676 106.083 11.8486 111.115 13.3451C111.892 13.574 112.646 13.8112 112.973 14.7557C113.059 14.9888 113.114 15.2341 113.148 15.3445ZM99.4412 22.5775C100.989 19.6557 103.201 17.2266 105.86 15.5285C103.218 13.832 101.013 11.4229 99.4524 8.52849C97.8869 11.4107 95.6955 13.8202 93.0748 15.5407C95.7151 17.24 97.9089 19.6648 99.4412 22.5775Z" fill="white"/>
<path d="M33.4915 25.133C33.5055 25.5846 33.3889 26.0293 33.1585 26.4033C32.9281 26.7773 32.5957 27.0613 32.2093 27.2142C31.7782 27.39 31.3099 27.4595 30.8713 27.6231C26.2406 29.2586 23.2351 32.6332 21.8551 37.7469C21.7473 38.1558 21.6878 38.5647 21.5577 38.9245C21.4377 39.3276 21.2066 39.6796 20.8965 39.9318C20.5865 40.184 20.2128 40.3238 19.8273 40.3319C19.4418 40.34 19.0635 40.2159 18.745 39.977C18.4264 39.738 18.1833 39.3959 18.0493 38.9981C17.9155 38.6178 17.8524 38.213 17.7483 37.8205C16.3472 32.501 13.2327 29.046 8.37895 27.5249C8.01755 27.4354 7.66136 27.3221 7.3123 27.1856C6.95908 27.0469 6.65361 26.7912 6.43796 26.4536C6.22232 26.1161 6.10709 25.7132 6.10815 25.3006C6.08543 24.8853 6.18532 24.473 6.39294 24.1252C6.60056 23.7774 6.90479 23.5128 7.26027 23.3707C7.60855 23.2348 7.9634 23.1201 8.3232 23.0273C13.203 21.4776 16.3769 18.0553 17.7594 12.6377C17.8486 12.2942 17.9118 11.9385 18.0308 11.6073C18.1553 11.1929 18.3972 10.8332 18.721 10.5809C19.0447 10.3286 19.4334 10.197 19.83 10.2052C20.2267 10.2134 20.6106 10.3611 20.9255 10.6266C21.2404 10.8922 21.4697 11.2616 21.58 11.6809C21.6767 11.9671 21.7398 12.2656 21.8142 12.56C23.1856 18.0553 26.3818 21.5022 31.3359 23.06C31.6955 23.1518 32.0494 23.2692 32.3951 23.4116C32.7024 23.5625 32.9667 23.8023 33.1598 24.1054C33.3529 24.4086 33.4675 24.7638 33.4915 25.133ZM13.3925 25.2761C16.0487 26.962 18.2547 29.3876 19.7887 32.3088C21.3323 29.4051 23.5268 26.9852 26.1625 25.2802C23.5525 23.5467 21.363 21.1435 19.7812 18.2761C18.2226 21.1651 16.0248 23.5732 13.3925 25.2761Z" fill="white"/>
<path d="M12.98 43.9456C13.7456 47.2943 15.5481 49.6699 18.473 50.9415C18.7793 51.0597 19.0796 51.1962 19.3724 51.3504C19.7095 51.5349 19.9849 51.8321 20.1591 52.1993C20.3334 52.5665 20.3975 52.985 20.3424 53.3948C20.3271 53.7823 20.1989 54.1541 19.9767 54.4553C19.7545 54.7564 19.4501 54.9709 19.1085 55.0671C18.6217 55.2265 18.1199 55.3329 17.6219 55.476C14.6041 56.2937 12.5563 58.3013 11.4005 61.4538C11.3299 61.6418 11.2778 61.8381 11.2035 62.0262C10.7538 63.1465 10.0885 63.629 9.18171 63.5022C8.27488 63.3755 7.6728 62.7376 7.51671 61.5601C7.36719 60.1053 6.91659 58.7076 6.19952 57.4743C5.48246 56.241 4.518 55.2049 3.38022 54.4456C2.77612 54.0705 2.14754 53.7452 1.49966 53.4725C0.429301 52.9655 -0.0910114 52.1845 0.0130512 51.1868C0.117114 50.1892 0.800953 49.4859 1.91591 49.2978C5.37971 48.7131 7.7174 46.587 9.01075 43.0297C9.11481 42.7435 9.19657 42.4491 9.32294 42.1793C9.49572 41.8129 9.76658 41.5137 10.0989 41.3221C10.4312 41.1305 10.809 41.0558 11.1812 41.108C11.5554 41.1364 11.9117 41.2951 12.1984 41.5613C12.4851 41.8274 12.6872 42.1871 12.7756 42.5881C12.8745 43.0344 12.9429 43.4881 12.98 43.9456ZM13.4223 52.6138L10.449 48.754L6.97781 51.9923L9.88785 55.8317L13.4223 52.6138Z" fill="white"/>
<path d="M103.273 62.5659C103.273 69.4351 103.232 76.3042 103.299 83.1693C103.321 85.042 102.686 86.2155 101.24 87.1313C90.5289 93.9106 79.8352 100.725 69.1589 107.575C67.7094 108.508 66.4867 108.52 65.0224 107.575C54.242 100.673 43.4381 93.8165 32.6106 87.0046C31.1463 86.0805 30.5405 84.903 30.5479 83.0507C30.59 69.4433 30.59 55.8358 30.5479 42.2283C30.5479 40.4661 31.0942 39.3008 32.5065 38.4135C43.4381 31.5334 54.351 24.6207 65.2454 17.6752C66.5201 16.8574 67.6499 16.8329 68.9173 17.6384C79.8191 24.5866 90.7209 31.513 101.623 38.4176C102.864 39.1985 103.291 40.2207 103.28 41.7704C103.239 48.6968 103.273 55.6314 103.273 62.5659ZM69.4933 64.1115V101.025L98.222 82.7604V45.8592L69.4933 64.1115ZM64.3683 101.029V64.1483C62.1384 62.7213 60.0348 61.2534 57.5745 59.8346V61.9935C57.5745 67.8159 57.5745 73.6384 57.5745 79.4608C57.607 80.0479 57.5834 80.6373 57.5038 81.219C57.429 81.6694 57.2461 82.0897 56.9739 82.4362C56.7018 82.7827 56.3504 83.0429 55.9561 83.1897C55.5619 83.3365 55.1391 83.3646 54.7316 83.2712C54.3241 83.1777 53.9468 82.9661 53.6387 82.6582C53.2011 82.2148 52.7925 81.738 52.4159 81.2312C51.6243 80.2745 50.8401 79.3136 50.0782 78.3691C49.0302 78.778 48.1568 79.1868 47.2425 79.4567C46.9134 79.5653 46.5667 79.5942 46.2264 79.5415C45.8861 79.4888 45.5602 79.3558 45.2711 79.1514C44.9819 78.9471 44.7364 78.6764 44.5512 78.3579C44.3661 78.0393 44.2459 77.6805 44.1987 77.306C44.1292 76.7233 44.108 76.1348 44.1355 75.5478C44.1355 68.1553 44.1355 60.7628 44.1355 53.3703V51.1746L35.5615 45.8346V82.7277L64.3683 101.029ZM67.0962 22.6717L38.0813 41.1162L46.6739 46.5788L75.7037 28.1302L67.0962 22.6717ZM60.1612 55.1571L67.1111 59.5648L96.1222 41.1284L89.1909 36.7085L60.1612 55.1571ZM80.7172 31.3276C77.5024 32.8282 52.7579 48.7826 51.9179 49.9071L55.3297 52.0578L84.3185 33.6255L80.7172 31.3276ZM52.6352 72.8451V56.6045L49.1788 54.4415V72.4731L52.6352 72.8451Z" fill="white"/>
</svg>
