<svg width="16" height="15" viewBox="0 0 16 15" fill="none" xmlns="http://www.w3.org/2000/svg">
<path d="M7.16526 14.9995C5.41285 14.9995 3.66143 14.9995 1.91101 14.9995C1.47546 15.01 1.05009 14.867 0.709351 14.5955C0.368616 14.324 0.134229 13.9413 0.047221 13.5144C0.0169461 13.3678 0.00152224 13.2185 0.00118317 13.0688C0.00118317 9.58185 0.00118317 6.09486 0.00118317 2.60787C-0.00788784 2.35402 0.0352772 2.10101 0.128003 1.86452C0.220728 1.62804 0.361038 1.41312 0.540234 1.23309C0.719431 1.05306 0.933695 0.911747 1.16975 0.817923C1.4058 0.724099 1.6586 0.679757 1.91249 0.687647C3.98469 0.687647 6.0554 0.687647 8.12463 0.687647C8.62065 0.687647 8.94143 1.0604 8.84341 1.51633C8.81263 1.65745 8.73696 1.78481 8.62772 1.87932C8.51849 1.97383 8.38158 2.0304 8.23749 2.04056C8.16769 2.04056 8.09789 2.04056 8.02958 2.04056H1.99269C1.54716 2.04056 1.36747 2.21729 1.36747 2.67024V13.0228C1.36747 13.452 1.54716 13.6317 1.97932 13.6317H12.3438C12.7715 13.6317 12.9541 13.449 12.9541 13.0183V6.88493C12.9541 6.4691 13.1739 6.19733 13.5482 6.14238C13.6369 6.1312 13.727 6.13773 13.8131 6.16161C13.8993 6.18549 13.9799 6.22624 14.0502 6.2815C14.1205 6.33676 14.1792 6.40542 14.2228 6.48351C14.2663 6.5616 14.294 6.64756 14.3041 6.73642C14.3071 6.78934 14.3071 6.8424 14.3041 6.89532C14.3041 8.96158 14.3041 11.0273 14.3041 13.0926C14.3172 13.5286 14.1751 13.9551 13.9032 14.2962C13.6312 14.6372 13.247 14.8707 12.819 14.9549C12.6625 14.9856 12.5032 15.0001 12.3438 14.998C10.6221 14.999 8.89588 14.9995 7.16526 14.9995Z" fill="#1A1818"/>
<path d="M12.6245 1.36633C11.8314 1.36633 11.0399 1.36633 10.2483 1.36633C10.1576 1.36911 10.0672 1.35366 9.98254 1.3209C9.89788 1.28813 9.82066 1.23871 9.75544 1.17557C9.69022 1.11243 9.63833 1.03684 9.60284 0.953289C9.56735 0.869735 9.54899 0.77991 9.54883 0.689132C9.54661 0.530362 9.60075 0.375946 9.70163 0.25332C9.8025 0.130693 9.94358 0.0477963 10.0998 0.0193568C10.1768 0.00581805 10.2548 -0.000644318 10.333 5.06148e-05H14.1942C14.7333 5.06148e-05 15.0006 0.267367 15.0006 0.807939C15.0006 2.10195 15.0006 3.39497 15.0006 4.68699C15.0074 4.7908 14.9927 4.8949 14.9575 4.99277C14.9222 5.09064 14.8671 5.18018 14.7957 5.25578C14.7014 5.35274 14.58 5.41884 14.4474 5.44536C14.3149 5.47187 14.1774 5.45755 14.0531 5.40429C13.9268 5.35749 13.8184 5.2723 13.743 5.16069C13.6676 5.04908 13.6291 4.91667 13.6328 4.78204C13.6328 4.03949 13.6328 3.29695 13.6328 2.55441V2.34055C13.5645 2.40441 13.5185 2.44451 13.4754 2.48906C12.3438 3.62169 11.2116 4.75432 10.079 5.88695C10.003 5.97667 9.90607 6.04625 9.79674 6.08951C9.68742 6.13278 9.5691 6.14839 9.4523 6.13496C9.32645 6.12319 9.20685 6.07468 9.10835 5.99547C9.00986 5.91625 8.93684 5.80983 8.89836 5.68943C8.85386 5.57442 8.84265 5.4492 8.86603 5.32812C8.8894 5.20703 8.94642 5.09498 9.03053 5.0048C9.07212 4.9558 9.11964 4.91273 9.16419 4.86817C10.283 3.75634 11.3973 2.64351 12.5071 1.52969C12.5536 1.48917 12.6033 1.45242 12.6556 1.4198L12.6245 1.36633Z" fill="#1A1818"/>
</svg>
