<svg width="40" height="40" viewBox="0 0 40 40" fill="none" xmlns="http://www.w3.org/2000/svg">
<path d="M34.8415 0H4.9785C3.65877 0.00210989 2.39369 0.527306 1.4605 1.4605C0.527306 2.39369 0.00210989 3.65877 0 4.9785L0 34.8415C0.00210989 36.1612 0.527306 37.4263 1.4605 38.3595C2.39369 39.2927 3.65877 39.8179 4.9785 39.82H19.91V26.1331H14.9315V19.91H19.91V14.9315C19.91 12.952 20.6964 11.0536 22.0961 9.65383C23.4958 8.2541 25.3942 7.46775 27.3738 7.46775H32.3523V13.6869H29.863C28.4907 13.6869 27.3738 13.5592 27.3738 14.9315V19.91H33.5969L31.1156 26.1331H27.3738V39.82H34.8415C36.1612 39.8179 37.4263 39.2927 38.3595 38.3595C39.2927 37.4263 39.8179 36.1612 39.82 34.8415V4.9785C39.8179 3.65877 39.2927 2.39369 38.3595 1.4605C37.4263 0.527306 36.1612 0.00210989 34.8415 0V0Z" fill="#1A1818"/>
</svg>
