<svg width="40" height="40" viewBox="0 0 40 40" fill="none" xmlns="http://www.w3.org/2000/svg">
<path d="M27.5 0H12.5C9.18479 0 6.00537 1.31696 3.66117 3.66117C1.31696 6.00537 0 9.18479 0 12.5L0 27.5C0 30.8152 1.31696 33.9946 3.66117 36.3388C6.00537 38.683 9.18479 40 12.5 40H27.5C30.8152 40 33.9946 38.683 36.3388 36.3388C38.683 33.9946 40 30.8152 40 27.5V12.5C40 9.18479 38.683 6.00537 36.3388 3.66117C33.9946 1.31696 30.8152 0 27.5 0V0ZM36.248 27.5C36.2459 29.8195 35.3235 32.0433 33.6834 33.6834C32.0433 35.3235 29.8195 36.2459 27.5 36.248H12.5C10.1802 36.2459 7.9559 35.3237 6.31515 33.6837C4.67441 32.0437 3.75118 29.8198 3.748 27.5V12.5C3.75117 10.1798 4.67428 7.95554 6.31491 6.31491C7.95554 4.67428 10.1798 3.75117 12.5 3.748H27.5C29.8198 3.75118 32.0437 4.67441 33.6837 6.31515C35.3237 7.9559 36.2459 10.1802 36.248 12.5V27.5Z" fill="#1A1818"/>
<path d="M20 10C18.0222 10 16.0888 10.5865 14.4443 11.6853C12.7998 12.7841 11.5181 14.3459 10.7612 16.1732C10.0043 18.0004 9.8063 20.0111 10.1922 21.9509C10.578 23.8907 11.5304 25.6725 12.9289 27.0711C14.3275 28.4696 16.1093 29.422 18.0491 29.8079C19.9889 30.1937 21.9996 29.9957 23.8268 29.2388C25.6541 28.4819 27.2159 27.2002 28.3147 25.5557C29.4135 23.9112 30 21.9778 30 20C30 17.3478 28.9464 14.8043 27.0711 12.9289C25.1957 11.0536 22.6522 10 20 10ZM20 26.248C18.7643 26.248 17.5563 25.8816 16.5288 25.195C15.5013 24.5085 14.7005 23.5327 14.2276 22.391C13.7547 21.2493 13.631 19.9931 13.8721 18.7811C14.1131 17.5691 14.7082 16.4558 15.582 15.582C16.4558 14.7082 17.5691 14.1131 18.7811 13.8721C19.9931 13.631 21.2493 13.7547 22.391 14.2276C23.5327 14.7005 24.5085 15.5013 25.195 16.5288C25.8816 17.5563 26.248 18.7643 26.248 20C26.2459 21.6564 25.5869 23.2444 24.4157 24.4157C23.2444 25.5869 21.6564 26.2459 20 26.248Z" fill="#1A1818"/>
<path d="M32.0841 9.24802C32.0849 9.51242 32.0072 9.77111 31.8609 9.99134C31.7146 10.2116 31.5062 10.3834 31.2621 10.4852C31.0181 10.5869 30.7493 10.6139 30.4899 10.5628C30.2305 10.5117 29.9921 10.3848 29.8048 10.1981C29.6176 10.0114 29.4899 9.7734 29.4381 9.51413C29.3862 9.25486 29.4124 8.98603 29.5134 8.74168C29.6144 8.49732 29.7857 8.28843 30.0054 8.14145C30.2252 7.99447 30.4837 7.91602 30.7481 7.91602C31.1014 7.91706 31.44 8.05761 31.6902 8.30707C31.9404 8.55652 32.082 8.89471 32.0841 9.24802Z" fill="#1A1818"/>
</svg>
