<svg xmlns="http://www.w3.org/2000/svg" viewBox="0 0 73.14 100"><defs><style>.cls-1{fill:#fff;}</style></defs><g id="Capa_2" data-name="Capa 2"><g id="Capa_1-2" data-name="Capa 1"><path class="cls-1" d="M62.14,100H11a2,2,0,0,0-.44-.17A12.28,12.28,0,0,1,0,86.86C.29,82,.81,77.2,1.25,72.37q2-22.07,4-44.12A3.18,3.18,0,0,1,8.76,25c2.67,0,5.34-.05,8,0,.89,0,1.05-.25,1.05-1.08,0-3.44-.25-6.88.69-10.28A18.88,18.88,0,0,1,36.75,0c8.53.13,16.16,6,17.88,14.14.68,3.2.5,6.59.65,9.89,0,.73.15,1,.95,1,2.77-.06,5.53,0,8.3,0a3.13,3.13,0,0,1,3.27,3q1.28,13.8,2.53,27.6c.9,9.88,1.76,19.76,2.71,29.63.48,5-.75,9.27-4.9,12.21C66.4,98.64,64.16,99.16,62.14,100ZM36.56,25c3.87,0,7.74,0,11.61,0,.64,0,.92-.1.9-.83-.06-2,0-4,0-6.05A12.44,12.44,0,0,0,37.63,6.29a12.26,12.26,0,0,0-13.1,9.36c-.57,2.73-.33,5.62-.49,8.44,0,.72.15.93.9.93C28.81,25,32.68,25,36.56,25Z"/></g></g></svg>