<svg width="271" height="69" viewBox="0 0 271 69" fill="none" xmlns="http://www.w3.org/2000/svg">
<path d="M210.944 60.2245V67.5743C210.937 67.8695 211.039 68.157 211.23 68.3822C211.315 68.4899 211.423 68.577 211.546 68.6373C211.67 68.6977 211.805 68.7295 211.942 68.7307H235.497C235.634 68.7295 235.769 68.6977 235.893 68.6373C236.016 68.577 236.124 68.4899 236.21 68.3822C236.406 68.1593 236.513 67.8715 236.511 67.5743V60.2245C236.508 59.9283 236.401 59.6425 236.21 59.4166C236.121 59.3135 236.012 59.2305 235.889 59.1731C235.766 59.1157 235.632 59.0853 235.497 59.084H211.942C211.807 59.0853 211.673 59.1157 211.55 59.1731C211.427 59.2305 211.318 59.3135 211.23 59.4166C211.042 59.644 210.941 59.93 210.944 60.2245Z" fill="white"/>
<path d="M29.6215 9.53575C29.6215 9.53575 28.6869 0.0316162 14.9851 0.0316162C1.28334 0.0316162 0.728933 9.53575 0.728933 9.53575L0.00028275 66.9565C-0.00391426 67.1937 0.038649 67.4293 0.125541 67.65C0.212434 67.8707 0.341953 68.0722 0.506701 68.2428C0.671449 68.4134 0.868198 68.5499 1.08571 68.6445C1.30322 68.7391 1.53724 68.7899 1.77439 68.794L8.41144 68.9366C8.65388 68.943 8.89513 68.9005 9.12079 68.8116C9.34645 68.7227 9.55189 68.5893 9.72486 68.4193C9.89783 68.2492 10.0348 68.0461 10.1275 67.822C10.2203 67.598 10.267 67.3575 10.2647 67.115L10.1697 45.3822C10.1676 45.1424 10.2133 44.9045 10.3041 44.6826C10.3949 44.4606 10.529 44.2589 10.6985 44.0894C10.8681 43.9198 11.0698 43.7857 11.2917 43.6949C11.5137 43.6041 11.7515 43.5584 11.9913 43.5605H18.3274C18.8078 43.5605 19.2688 43.7503 19.6099 44.0885C19.9511 44.4267 20.1449 44.886 20.149 45.3663L20.2441 67.1783C20.2441 67.6572 20.4343 68.1165 20.773 68.4552C21.1116 68.7938 21.5709 68.9841 22.0499 68.9841H28.5919C28.8324 68.9841 29.0706 68.9365 29.2927 68.8439C29.5147 68.7514 29.7162 68.6158 29.8856 68.445C30.055 68.2741 30.1888 68.0714 30.2794 67.8486C30.37 67.6258 30.4156 67.3872 30.4135 67.1466L29.6215 9.53575ZM17.9789 34.69H12.8309C12.2019 34.6575 11.6095 34.3846 11.1761 33.9276C10.7427 33.4706 10.5015 32.8646 10.5023 32.2348V12.4503C10.4788 12.2663 10.4788 12.08 10.5023 11.8959C10.7083 11.1515 11.4844 9.32982 14.605 9.15558C15.5335 9.07763 16.4671 9.22401 17.3272 9.58239C18.1873 9.94076 18.9487 10.5006 19.5471 11.2148C19.9147 11.6599 20.1113 12.2216 20.1015 12.7988L20.3866 32.2506C20.3787 32.8897 20.1234 33.5008 19.6745 33.9556C19.2255 34.4105 18.6178 34.6737 17.9789 34.69Z" fill="white"/>
<path d="M157.579 9.53581C157.579 9.53581 156.628 0.0316772 142.942 0.0316772C129.256 0.0316772 128.686 9.53581 128.686 9.53581L127.958 66.9566C127.953 67.1938 127.996 67.4294 128.083 67.6501C128.17 67.8708 128.299 68.0722 128.464 68.2429C128.629 68.4135 128.825 68.55 129.043 68.6446C129.26 68.7391 129.495 68.7899 129.732 68.7941L136.369 68.9366C136.611 68.943 136.852 68.9005 137.078 68.8116C137.304 68.7228 137.509 68.5893 137.682 68.4193C137.855 68.2493 137.992 68.0462 138.085 67.8221C138.178 67.598 138.224 67.3575 138.222 67.115L138.127 45.3822C138.125 45.1438 138.17 44.9072 138.26 44.6863C138.35 44.4654 138.482 44.2645 138.65 44.0951C138.818 43.9257 139.018 43.7913 139.238 43.6996C139.458 43.6078 139.694 43.5606 139.933 43.5606H146.269C146.748 43.5606 147.207 43.7509 147.546 44.0895C147.884 44.4282 148.075 44.8875 148.075 45.3664L148.17 67.1784C148.174 67.6587 148.368 68.118 148.709 68.4562C149.05 68.7944 149.511 68.9842 149.991 68.9842H156.533C156.778 68.9905 157.021 68.9476 157.249 68.8579C157.476 68.7683 157.684 68.6337 157.858 68.4622C158.032 68.2907 158.17 68.0859 158.264 67.8598C158.358 67.6338 158.405 67.3913 158.402 67.1467L157.579 9.53581ZM145.92 34.6901H140.788C140.156 34.6615 139.56 34.3903 139.123 33.9329C138.687 33.4755 138.443 32.8672 138.444 32.2348V12.4504C138.42 12.2663 138.42 12.0801 138.444 11.896C138.634 11.1515 139.426 9.32989 142.546 9.15564C143.475 9.07902 144.408 9.22601 145.268 9.58429C146.128 9.94257 146.889 10.5017 147.489 11.2149C147.849 11.664 148.045 12.223 148.043 12.7989L148.312 32.2507C148.308 32.8883 148.057 33.4993 147.61 33.9546C147.164 34.4099 146.558 34.6736 145.92 34.6901Z" fill="white"/>
<path d="M35.1497 67.416V1.63154C35.1497 1.21143 35.3165 0.808532 35.6136 0.51147C35.9107 0.214408 36.3136 0.0475207 36.7337 0.0475207H44.1311C44.5512 0.0475207 44.9541 0.214408 45.2511 0.51147C45.5482 0.808532 45.7151 1.21143 45.7151 1.63154V16.9966C45.7077 17.0278 45.7077 17.0604 45.7151 17.0916L53.952 33.3753C53.9706 33.4276 54.008 33.471 54.057 33.497C54.106 33.523 54.1629 33.5297 54.2166 33.5158C54.2703 33.5019 54.3168 33.4683 54.347 33.4218C54.3772 33.3753 54.3889 33.3192 54.3797 33.2645V1.58402C54.3797 1.16391 54.5466 0.761011 54.8436 0.463949C55.1407 0.166888 55.5436 0 55.9637 0H62.7275C63.1476 0 63.5505 0.166888 63.8475 0.463949C64.1446 0.761011 64.3115 1.16391 64.3115 1.58402V67.416C64.3115 67.8361 64.1446 68.239 63.8475 68.5361C63.5505 68.8331 63.1476 69 62.7275 69H55.441C55.0209 69 54.618 68.8331 54.3209 68.5361C54.0238 68.239 53.857 67.8361 53.857 67.416V52.3044C53.8617 52.2782 53.8617 52.2514 53.857 52.2252L45.3191 35.8147C45.3005 35.7625 45.2631 35.7191 45.2141 35.6931C45.1651 35.6671 45.1081 35.6604 45.0545 35.6743C45.0008 35.6882 44.9542 35.7217 44.9241 35.7683C44.8939 35.8148 44.8822 35.8709 44.8914 35.9256V67.416C44.8914 67.8361 44.7245 68.239 44.4274 68.5361C44.1304 68.8331 43.7275 69 43.3074 69H36.702C36.2874 68.9917 35.8926 68.8212 35.6023 68.525C35.3121 68.2288 35.1496 67.8307 35.1497 67.416Z" fill="white"/>
<path d="M69.6973 67.3051V1.66325C69.6973 1.24314 69.8642 0.840235 70.1612 0.543173C70.4583 0.246111 70.8612 0.0792236 71.2813 0.0792236H78.4094C78.8295 0.0792236 79.2324 0.246111 79.5295 0.543173C79.8266 0.840235 79.9934 1.24314 79.9934 1.66325V67.3843C79.9934 67.8044 79.8266 68.2073 79.5295 68.5044C79.2324 68.8014 78.8295 68.9683 78.4094 68.9683H71.2972C71.081 68.9708 70.8666 68.9289 70.6672 68.8454C70.4678 68.7618 70.2876 68.6383 70.1377 68.4825C69.9879 68.3267 69.8715 68.1419 69.7957 67.9394C69.72 67.7369 69.6865 67.521 69.6973 67.3051Z" fill="white"/>
<path d="M87.2325 68.9841H93.8379C94.258 68.9841 94.6609 68.8173 94.9579 68.5202C95.255 68.2231 95.4219 67.8202 95.4219 67.4001V23.5861C95.4209 23.454 95.4646 23.3254 95.5459 23.2213C95.6272 23.1171 95.7413 23.0435 95.8696 23.0123C95.998 22.9811 96.1332 22.9942 96.2532 23.0495C96.3731 23.1048 96.471 23.199 96.5307 23.3168L103.801 37.1295C103.852 37.222 103.926 37.2993 104.017 37.3532C104.107 37.407 104.211 37.4354 104.316 37.4354C104.422 37.4354 104.525 37.407 104.616 37.3532C104.706 37.2993 104.781 37.222 104.831 37.1295L112.751 23.1426C112.815 23.0317 112.914 22.945 113.033 22.8957C113.151 22.8464 113.282 22.8372 113.406 22.8695C113.53 22.9019 113.64 22.974 113.719 23.0748C113.798 23.1756 113.842 23.2995 113.844 23.4277V67.4001C113.844 67.8202 114.011 68.2231 114.308 68.5202C114.605 68.8173 115.008 68.9841 115.428 68.9841H121.764C122.184 68.9841 122.587 68.8173 122.884 68.5202C123.181 68.2231 123.348 67.8202 123.348 67.4001V1.64738C123.348 1.22727 123.181 0.824365 122.884 0.527304C122.587 0.230242 122.184 0.0633545 121.764 0.0633545H115.887C115.593 0.065712 115.306 0.149948 115.057 0.306623C114.808 0.463297 114.607 0.686219 114.478 0.950407L105.243 19.8161C105.196 19.9169 105.121 20.0022 105.027 20.0619C104.933 20.1217 104.824 20.1534 104.712 20.1534C104.601 20.1534 104.492 20.1217 104.398 20.0619C104.304 20.0022 104.229 19.9169 104.182 19.8161L95.7228 0.997927C95.5979 0.720011 95.3955 0.484024 95.1398 0.31826C94.8841 0.152496 94.5861 0.0639903 94.2814 0.0633545H87.4542C87.0341 0.0633545 86.6312 0.230242 86.3342 0.527304C86.0371 0.824365 85.8702 1.22727 85.8702 1.64738L85.6643 67.416C85.6684 67.8306 85.835 68.2271 86.1282 68.5203C86.4214 68.8135 86.8179 68.98 87.2325 68.9841Z" fill="white"/>
<path d="M165.309 68.9842H186.994C187.578 68.9842 188.138 68.7522 188.551 68.3393C188.964 67.9264 189.196 67.3664 189.196 66.7824V61.2066C189.196 60.6227 188.964 60.0627 188.551 59.6497C188.138 59.2368 187.578 59.0049 186.994 59.0049H174.956C174.577 59.0049 174.215 58.8547 173.947 58.5873C173.68 58.32 173.53 57.9573 173.53 57.5792V2.24936C173.53 1.96096 173.473 1.67541 173.362 1.40916C173.251 1.14291 173.089 0.901227 172.884 0.698034C172.679 0.494842 172.437 0.334157 172.17 0.225239C171.902 0.116321 171.617 0.061322 171.328 0.0634119H165.198C164.91 0.0634043 164.624 0.120466 164.358 0.23131C164.092 0.342153 163.85 0.504587 163.647 0.709252C163.443 0.913917 163.283 1.15677 163.174 1.42381C163.065 1.69085 163.01 1.97681 163.012 2.2652L163.155 66.7982C163.155 67.3726 163.38 67.9238 163.784 68.3329C164.187 68.7419 164.735 68.9759 165.309 68.9842Z" fill="white"/>
<path d="M197.908 33.0902C197.898 33.0504 197.904 33.0083 197.925 32.9728C197.946 32.9373 197.979 32.9113 198.019 32.9002C198.827 32.7893 202.613 32.1873 203.626 30.4132C204.478 28.8217 204.981 27.0665 205.099 25.2652C205.321 22.1922 205.099 5.92426 205.099 5.92426C205.099 5.92426 205.48 0.0792249 198.035 0.0792249H179.787C179.572 0.0789561 179.359 0.122399 179.162 0.20691C178.964 0.291421 178.786 0.415234 178.638 0.570817C178.49 0.726399 178.375 0.9105 178.3 1.11192C178.225 1.31334 178.192 1.52786 178.203 1.74245V51.75C178.223 52.18 178.41 52.5853 178.723 52.8807C179.036 53.1761 179.451 53.3386 179.882 53.334H186.408C186.629 53.334 186.847 53.2906 187.051 53.2062C187.254 53.1218 187.439 52.9982 187.595 52.8423C187.751 52.6863 187.875 52.5012 187.959 52.2975C188.044 52.0938 188.087 51.8755 188.087 51.655V36.7968C188.095 36.7127 188.131 36.6336 188.19 36.5722C188.248 36.5108 188.325 36.4706 188.408 36.4579C188.492 36.4452 188.577 36.4607 188.651 36.502C188.725 36.5433 188.783 36.608 188.816 36.686L194.186 44.02C195.244 45.6148 195.796 47.4919 195.77 49.4057V67.7328C195.77 68.7307 196.688 68.9525 197.48 68.9525H203.357C203.754 68.9952 204.151 68.8868 204.472 68.649C204.792 68.4111 205.01 68.0614 205.084 67.6694V45.4931C205.091 43.3315 204.352 41.2335 202.993 39.553L197.908 33.0902ZM195.738 24.7266C195.758 25.0621 195.708 25.398 195.591 25.7131C195.474 26.0281 195.293 26.3154 195.059 26.5568C194.825 26.7981 194.544 26.9881 194.232 27.1148C193.921 27.2415 193.587 27.3021 193.251 27.2927H188.404C188.222 27.2928 188.047 27.2215 187.917 27.0942C187.786 26.9669 187.711 26.7937 187.707 26.6116V8.68046C187.705 8.59101 187.72 8.50202 187.753 8.41857C187.785 8.33513 187.833 8.25886 187.895 8.19414C187.957 8.12941 188.031 8.0775 188.113 8.04135C188.195 8.00521 188.283 7.98555 188.372 7.98349C189.481 7.98349 191.778 7.98349 193.536 7.98349C195.976 8.07853 195.77 11.4367 195.77 11.4367C195.77 11.4367 195.833 22.0179 195.738 24.7266Z" fill="white"/>
<path d="M231.347 0.316833H215.712C211.847 0.316833 208.727 3.86504 208.727 8.23694V45.6199C208.727 50.0076 211.895 53.54 215.712 53.54H231.347C235.196 53.54 238.332 49.9918 238.332 45.6199V8.25278C238.332 3.86504 235.196 0.316833 231.347 0.316833ZM229.683 40.7094C229.748 41.7449 229.4 42.7639 228.713 43.5422C228.027 44.3205 227.06 44.7944 226.024 44.8595H221.019C219.985 44.7903 219.02 44.3153 218.335 43.5379C217.649 42.7606 217.299 41.7439 217.36 40.7094V12.9256C217.299 11.8895 217.649 10.871 218.334 10.0912C219.019 9.31133 219.983 8.83291 221.019 8.75967H226.024C227.061 8.82886 228.028 9.30611 228.714 10.0869C229.4 10.8677 229.749 11.8885 229.683 12.9256V40.7094Z" fill="white"/>
<path d="M260.746 0.0633545H243.655C243.188 0.0633545 242.741 0.2486 242.411 0.578338C242.081 0.908077 241.896 1.3553 241.896 1.82162V67.2259C241.896 67.6922 242.081 68.1394 242.411 68.4692C242.741 68.7989 243.188 68.9841 243.655 68.9841H250.497C250.964 68.9841 251.411 68.7989 251.741 68.4692C252.07 68.1394 252.256 67.6922 252.256 67.2259V44.3051C252.254 44.1665 252.279 44.0288 252.331 43.9001C252.382 43.7715 252.459 43.6543 252.556 43.5556C252.654 43.4568 252.77 43.3784 252.897 43.3249C253.025 43.2713 253.163 43.2438 253.301 43.2438H262.504C262.504 43.2438 270.282 42.1667 270.424 32.5358C270.567 22.9049 270.424 10.5179 270.424 10.5179C270.424 10.5179 270.868 0.0633545 260.746 0.0633545ZM253.317 8.75963H258.544C261.015 9.51996 260.841 12.8464 260.841 12.8464C260.841 12.8464 261.095 26.5165 260.841 29.637C260.588 32.7576 258.196 32.7259 258.196 32.7259H254.03C253.579 32.7259 253.146 32.5478 252.826 32.2304C252.505 31.913 252.323 31.4819 252.319 31.031L252.161 9.88429C252.163 9.73451 252.194 9.58661 252.254 9.44903C252.313 9.31145 252.399 9.18688 252.506 9.08244C252.613 8.97801 252.74 8.89575 252.879 8.84036C253.019 8.78497 253.167 8.75754 253.317 8.75963Z" fill="white"/>
</svg>
