<svg xmlns="http://www.w3.org/2000/svg" viewBox="0 0 109.12 100"><g id="Capa_2" data-name="Capa 2"><g id="Capa_1-2" data-name="Capa 1"><path d="M0,29.78c.35-2.05.57-4.14,1.07-6.15C3.41,14.36,8.45,7,17.13,2.73c8.24-4.1,16.39-3.54,24.19,1.39a51.12,51.12,0,0,1,12.47,11.5c.76,1,.75,1,1.53,0,4-5,8.55-9.41,14.22-12.5,7.66-4.18,15.38-4,23-.07,7.29,3.78,12,9.89,14.59,17.57a34.76,34.76,0,0,1-.84,25.26,31.47,31.47,0,0,1-7,10.35Q78.1,77.36,56.91,98.59a8.64,8.64,0,0,1-1.11,1,2.1,2.1,0,0,1-2.49,0,8.07,8.07,0,0,1-1-.91Q31.87,78.35,11.49,58A41,41,0,0,1,4.93,50,34.21,34.21,0,0,1,.43,37.4c-.15-1-.29-2.09-.43-3.14Zm104.72,2.39c-.33-2.35-.48-4.74-1-7-1.85-7.9-6-14.25-13.29-18.1a18.61,18.61,0,0,0-17.77-.41,31.91,31.91,0,0,0-9.27,6.88C61,16,58.88,18.71,56.72,21.38c-1.4,1.71-3,1.75-4.35,0-.49-.65-.95-1.33-1.45-2-3.64-4.64-7.67-8.86-12.81-11.87A18.68,18.68,0,0,0,26,4.72C19,5.66,13.59,9.36,9.66,15.16A30,30,0,0,0,4.94,36.88,29.32,29.32,0,0,0,9.23,48.35a40.22,40.22,0,0,0,6,6.9q19.2,19.27,38.5,38.46c.93.92.72.94,1.69,0L97,52.12a8.87,8.87,0,0,0,.72-.78A31.17,31.17,0,0,0,104.72,32.17Z"/></g></g></svg>